<?xml version="1.0" standalone="no"?>
<!DOCTYPE svg PUBLIC "-//W3C//DTD SVG 20010904//EN"
 "http://www.w3.org/TR/2001/REC-SVG-20010904/DTD/svg10.dtd">
<svg version="1.0" xmlns="http://www.w3.org/2000/svg"
 width="818.000000pt" height="198.000000pt" viewBox="0 0 818.000000 198.000000"
 preserveAspectRatio="xMidYMid meet">

<g transform="translate(0.000000,198.000000) scale(0.100000,-0.100000)"
fill="#000000" stroke="none">
<path d="M2795 1619 c-40 -36 -98 -147 -120 -234 -9 -33 -18 -112 -22 -175
l-5 -115 -219 -218 c-121 -120 -219 -223 -219 -228 0 -5 9 -9 19 -9 12 0 96
80 216 205 109 113 201 205 205 205 4 0 10 -42 14 -92 4 -51 13 -135 20 -187
l13 -94 -43 -68 c-80 -124 -142 -265 -144 -326 0 -6 12 -25 26 -42 29 -35 67
-40 113 -17 68 36 96 132 88 310 l-5 130 73 126 c40 69 111 204 157 301 45 98
84 173 86 169 4 -12 -85 -452 -99 -487 -17 -45 -59 -235 -53 -245 10 -16 25
-7 35 21 8 23 18 30 48 35 104 16 240 120 308 234 36 59 48 70 211 177 94 63
172 112 172 109 0 -3 -13 -23 -29 -43 -51 -65 -161 -238 -187 -296 -19 -41
-23 -60 -15 -68 17 -17 82 18 137 75 l49 49 5 -33 c5 -33 5 -33 60 -32 63 1
129 31 269 121 81 52 84 54 58 22 -40 -49 -63 -97 -51 -109 15 -15 122 42 208
110 42 33 76 56 76 51 0 -5 -11 -34 -25 -65 -18 -40 -30 -56 -44 -56 -28 0
-35 -17 -18 -43 13 -19 12 -29 -10 -92 -56 -162 -70 -289 -37 -326 23 -26 46
-24 76 5 54 54 73 205 43 333 -8 34 -12 68 -9 75 3 7 30 29 61 48 31 19 79 62
107 94 28 33 70 80 93 105 l43 46 0 -30 c0 -16 -7 -84 -15 -150 -8 -65 -15
-132 -15 -147 0 -63 57 -16 160 134 33 48 64 89 69 92 5 3 11 -25 13 -62 6
-81 27 -125 67 -142 44 -18 90 -6 161 41 l61 41 26 -26 c58 -58 168 -72 683
-86 367 -9 633 -23 693 -36 34 -7 39 21 5 29 -49 12 -320 28 -698 42 -407 15
-547 30 -627 65 -26 11 -43 25 -43 36 0 9 18 53 40 97 57 113 48 168 -17 109
-22 -21 -38 -51 -54 -103 -31 -103 -96 -159 -183 -159 -49 0 -64 27 -73 130
-7 70 -11 85 -26 88 -26 5 -36 -6 -128 -134 -45 -63 -84 -112 -87 -109 -3 2 1
45 8 94 14 101 6 244 -14 239 -6 -2 -53 -49 -104 -106 -85 -92 -149 -152 -165
-152 -3 0 5 24 18 53 30 65 35 100 15 104 -8 2 -62 -32 -120 -74 -58 -43 -118
-86 -134 -97 l-28 -18 30 44 c17 23 64 83 106 133 73 86 89 115 65 115 -6 0
-40 -29 -75 -65 -64 -64 -234 -185 -323 -229 -57 -28 -141 -50 -152 -39 -5 5
23 73 61 153 39 80 70 151 70 158 0 7 -8 12 -17 10 -11 -2 -34 -35 -58 -85
-22 -45 -61 -108 -88 -140 -44 -56 -157 -161 -157 -148 0 25 140 238 225 340
62 75 82 111 71 122 -8 9 0 14 -237 -144 -101 -67 -184 -121 -186 -120 -1 2 5
23 13 47 46 133 79 380 56 417 -15 24 -61 34 -95 19 -60 -25 -154 -156 -238
-330 -27 -56 -49 -96 -49 -91 0 6 14 78 30 160 16 83 33 181 36 219 7 62 6 68
-11 65 -10 -2 -23 -17 -28 -34 -49 -156 -345 -743 -347 -690 0 6 -7 64 -15
130 -8 66 -15 148 -15 182 l0 63 78 97 c122 152 201 297 202 371 0 81 -105
112 -175 51z m119 -15 c52 -52 -38 -239 -210 -439 l-26 -30 7 89 c9 115 27
183 70 273 52 106 117 150 159 107z m466 -229 c28 -34 -17 -326 -67 -432 -13
-27 -35 -46 -78 -71 -33 -19 -107 -63 -164 -98 -100 -63 -103 -64 -96 -37 10
42 112 287 158 378 104 210 203 313 247 260z m-120 -541 c0 -4 -16 -28 -35
-55 -54 -72 -164 -147 -243 -164 -31 -6 -33 -5 -24 12 19 35 78 82 182 147
102 64 120 73 120 60z m952 -244 c0 -83 -22 -154 -53 -171 -40 -21 -37 53 8
205 23 77 28 85 36 65 5 -13 9 -58 9 -99z m-1502 -94 c0 -157 -36 -246 -101
-246 -57 0 -66 50 -24 151 34 85 106 210 117 203 4 -3 8 -51 8 -108z"/>
</g>
</svg>
